# xmcd
#
# Track frame offsets:
#	150
#	14045
#	26860
#	45725
#	58471
#	65006
#	74893
#	89587
#	102344
#	116618
#	143471
#	166229
#	173756
#	183302
#
# Disc length: 2697 seconds
#
# Revision: 1
# Processed by: cddbd v1.5.2PL0 Copyright (c) Steve Scherf et al.
# Submitted via: EasyCDDAExtractor 12.0.7.1
#
DISCID=d40a870e
DTITLE=Владимир Высоцкий - Приготовьтесь - сейчас будет грустно
DYEAR=2011
DGENRE=Chanson
TTITLE0=Охота на волков
TTITLE1=Баллада о бане
TTITLE2=Прерванный полет
TTITLE3=Очи черные. Старый дом
TTITLE4=Гололед
TTITLE5=Песенка о переселении душ
TTITLE6=Песня про первые ряды
TTITLE7=Я несла свою беду...
TTITLE8=Песенка про мангустов
TTITLE9=Заповедник
TTITLE10=Притча о правде и лжи...
TTITLE11=Дайте собакам мяса...
TTITLE12=Оловянные солдатики
TTITLE13=Зарыты в нашу память на века...
EXTD=
EXTT0=
EXTT1=
EXTT2=
EXTT3=
EXTT4=
EXTT5=
EXTT6=
EXTT7=
EXTT8=
EXTT9=
EXTT10=
EXTT11=
EXTT12=
EXTT13=
PLAYORDER=
